<svg width="64" height="64" viewBox="0 0 64 64" fill="none" xmlns="http://www.w3.org/2000/svg">
<g clip-path="url(#clip0_1_19)">
<circle cx="32" cy="32" r="32" fill="white"/>
<path d="M12.1719 32.0348C12.1719 35.0049 12.6875 37.743 13.7188 40.249C14.75 42.755 16.1562 44.913 17.9375 46.7229C19.7187 48.5328 21.8047 49.9482 24.1953 50.9692C26.6328 51.9902 29.2344 52.5007 32 52.5007C34.7188 52.5007 37.2734 51.9902 39.6641 50.9692C42.1016 49.9482 44.2109 48.5328 45.9922 46.7229C47.7734 44.913 49.1797 42.755 50.2109 40.249C51.2891 37.743 51.8281 35.0049 51.8281 32.0348C51.8281 29.0647 51.2891 26.3266 50.2109 23.8206C49.1797 21.3146 47.7734 19.1566 45.9922 17.3467C44.2109 15.5368 42.1016 14.1214 39.6641 13.1004C37.2734 12.0794 34.7188 11.5689 32 11.5689C29.2344 11.5689 26.6328 12.0794 24.1953 13.1004C21.8047 14.1214 19.7187 15.5368 17.9375 17.3467C16.1562 19.1566 14.75 21.3146 13.7188 23.8206C12.6875 26.3266 12.1719 29.0647 12.1719 32.0348ZM5 32.0348C5 28.0437 5.72656 24.4471 7.17969 21.245C8.67969 18.0428 10.6719 15.328 13.1562 13.1004C15.6406 10.8264 18.5 9.08612 21.7344 7.87951C25.0156 6.6265 28.4375 6 32 6C35.5625 6 38.9609 6.6265 42.1953 7.87951C45.4766 9.08612 48.3594 10.8264 50.8438 13.1004C53.3281 15.328 55.2969 18.0428 56.75 21.245C58.25 24.4471 59 28.0437 59 32.0348C59 35.9795 58.25 39.5529 56.75 42.755C55.2969 45.9572 53.3281 48.6952 50.8438 50.9692C48.3594 53.2432 45.4766 54.9835 42.1953 56.1901C38.9609 57.3967 35.5625 58 32 58C28.4375 58 25.0156 57.3967 21.7344 56.1901C18.5 54.9835 15.6406 53.2432 13.1562 50.9692C10.6719 48.6952 8.67969 45.9572 7.17969 42.755C5.72656 39.5529 5 35.9795 5 32.0348Z" fill="black"/>
<path d="M26.071 36.8394C26.071 37.8032 26.2441 38.6198 26.5901 39.2892C26.9362 39.9585 27.3888 40.5074 27.9478 40.9357C28.5334 41.3373 29.2123 41.6452 29.9843 41.8594C30.7563 42.0469 31.5549 42.1406 32.3801 42.1406C32.9391 42.1406 33.5381 42.1004 34.177 42.0201C34.8159 41.913 35.4149 41.7256 35.9739 41.4578C36.5329 41.1901 36.9988 40.8286 37.3715 40.3735C37.7442 39.8916 37.9305 39.2892 37.9305 38.5663C37.9305 37.7898 37.6776 37.1606 37.1718 36.6787C36.6926 36.1968 36.0538 35.7952 35.2551 35.4739C34.4565 35.1526 33.5514 34.8715 32.5398 34.6305C31.5283 34.3896 30.5034 34.1218 29.4652 33.8273C28.4003 33.5596 27.3621 33.2383 26.3505 32.8635C25.339 32.4618 24.4339 31.9531 23.6352 31.3373C22.8366 30.7216 22.1844 29.9585 21.6786 29.0482C21.1995 28.1111 20.9599 26.9866 20.9599 25.6747C20.9599 24.2021 21.266 22.9304 21.8783 21.8594C22.5172 20.7617 23.3424 19.8514 24.354 19.1285C25.3656 18.4056 26.5103 17.8701 27.7881 17.5221C29.0658 17.174 30.3436 17 31.6214 17C33.1122 17 34.5364 17.174 35.894 17.5221C37.2783 17.8434 38.5028 18.3788 39.5677 19.1285C40.6325 19.8782 41.471 20.842 42.0833 22.0201C42.7222 23.1714 43.0417 24.577 43.0417 26.2369H36.9722C36.9189 25.3802 36.7326 24.6707 36.4131 24.1084C36.1203 23.5462 35.721 23.1044 35.2152 22.7831C34.7094 22.4618 34.1238 22.2343 33.4582 22.1004C32.8194 21.9665 32.1139 21.8996 31.3419 21.8996C30.8361 21.8996 30.3303 21.9531 29.8245 22.0602C29.3187 22.1673 28.8529 22.3548 28.427 22.6225C28.0276 22.8902 27.6949 23.2249 27.4287 23.6265C27.1625 24.0281 27.0294 24.5368 27.0294 25.1526C27.0294 25.7149 27.1359 26.17 27.3488 26.5181C27.5618 26.8661 27.9744 27.1874 28.5867 27.4819C29.2256 27.7764 30.0907 28.0709 31.1822 28.3655C32.3002 28.66 33.7511 29.0348 35.5347 29.49C36.0671 29.5971 36.7991 29.7979 37.7309 30.0924C38.6892 30.3601 39.6342 30.8019 40.5659 31.4177C41.4977 32.0335 42.2963 32.8635 42.9618 33.9076C43.6539 34.925 44 36.2369 44 37.8434C44 39.1553 43.7471 40.3735 43.2413 41.498C42.7355 42.6225 41.9768 43.5997 40.9653 44.4297C39.9803 45.2329 38.7424 45.8621 37.2517 46.3173C35.7875 46.7724 34.0838 47 32.1405 47C30.5699 47 29.0392 46.7992 27.5485 46.3976C26.0843 46.0228 24.7799 45.4203 23.6352 44.5904C22.5172 43.7604 21.6254 42.7028 20.9599 41.4177C20.2944 40.1325 19.9749 38.6064 20.0015 36.8394H26.071Z" fill="black"/>
</g>
<defs>
<clipPath id="clip0_1_19">
<rect width="64" height="64" fill="white"/>
</clipPath>
</defs>
</svg>
